<?xml version="1.0" encoding="utf-8"?>
<!-- Generator: Adobe Illustrator 15.1.0, SVG Export Plug-In . SVG Version: 6.00 Build 0)  -->
<!DOCTYPE svg PUBLIC "-//W3C//DTD SVG 1.1//EN" "http://www.w3.org/Graphics/SVG/1.1/DTD/svg11.dtd">
<svg version="1.1" id="Layer_1" xmlns="http://www.w3.org/2000/svg" xmlns:xlink="http://www.w3.org/1999/xlink" x="0px" y="0px"
	 width="743px" height="503px" viewBox="0 0 743 503" enable-background="new 0 0 743 503" xml:space="preserve">
<polygon fill="#FFCE43" points="14.246,307.705 14.246,307.705 49.581,344.507 14.246,381.305 14.246,381.312 165.672,381.312 
	165.672,307.705 "/>
<polygon fill="#FFCE43" points="733.754,307.705 733.754,307.705 698.419,344.507 733.754,381.305 733.754,381.312 582.33,381.312 
	582.33,307.705 "/>
<polygon fill="#123651" points="565.917,138.512 373.999,35.685 182.078,138.512 182.078,371.488 373.999,474.314 565.917,371.488 
	"/>
<path fill="#009AE2" d="M374.002,35.686l191.916,102.826v232.977L374.002,474.314L182.08,371.488V138.512L374.002,35.686z
	 M374.002,17.071L165.671,128.688v252.625L374.002,492.93L582.33,381.312V128.688L374.002,17.071z"/>
<polygon fill="#009AE2" points="229.134,352.71 233.2,352.71 233.2,368.879 242.139,368.879 242.139,372.448 229.134,372.448 "/>
<polygon fill="#009AE2" points="247.043,352.71 260.108,352.71 260.108,356.281 251.108,356.281 251.108,360.557 259.032,360.557 
	259.032,364.041 251.108,364.041 251.108,368.879 260.513,368.879 260.513,372.448 247.043,372.448 "/>
<g>
	<defs>
		<rect id="SVGID_1_" x="-26" y="-45" width="800" height="600"/>
	</defs>
	<clipPath id="SVGID_2_">
		<use xlink:href="#SVGID_1_"  overflow="visible"/>
	</clipPath>
	<path clip-path="url(#SVGID_2_)" fill="#009AE2" d="M273.837,352.537h0.346l9.03,19.911h-4.267l-0.93-2.235h-8.012l-0.93,2.235
		h-3.919L273.837,352.537z M276.564,366.816l-1.42-3.422c-0.581-1.396-1.191-3.545-1.191-3.545s-0.581,2.148-1.161,3.545
		l-1.425,3.422H276.564z"/>
	<path clip-path="url(#SVGID_2_)" fill="#009AE2" d="M302.315,372.448h-4.705l-3.251-4.991c-0.376,0.058-0.783,0.087-1.159,0.087
		h-1.394v4.904h-4.065V352.71h5.459c5.512,0,8.823,2.643,8.823,7.461c0,3.077-1.365,5.021-3.801,6.124L302.315,372.448z
		 M293.082,364.002c3.311,0,4.761-1.045,4.761-3.831s-1.51-3.89-4.761-3.89h-1.276v7.721H293.082z"/>
	<path clip-path="url(#SVGID_2_)" fill="#009AE2" d="M313.126,363.275c-0.986-0.927-2.353-2.698-2.353-2.698
		s0.291,2.178,0.291,3.599v8.272h-3.802v-19.911h0.407l9.957,9.345c0.958,0.902,2.321,2.701,2.321,2.701s-0.261-2.234-0.261-3.6
		v-8.273h3.803v19.913h-0.406L313.126,363.275z"/>
	<path clip-path="url(#SVGID_2_)" fill="#FFCE43" d="M329.494,370.154c0-1.419,1.13-2.437,2.467-2.437
		c1.308,0,2.44,1.018,2.44,2.437c0,1.454-1.132,2.469-2.44,2.469C330.624,372.623,329.494,371.608,329.494,370.154"/>
	<path clip-path="url(#SVGID_2_)" fill="#009AE2" d="M337.769,362.581c0-5.836,4.501-10.103,10.16-10.103
		c3.57,0,6.127,1.276,7.897,4.033l-3.108,2.207c-0.929-1.509-2.525-2.583-4.789-2.583c-3.57,0-5.979,2.757-5.979,6.445
		c0,3.685,2.409,6.502,5.979,6.502c2.555,0,3.975-1.218,5.08-2.902l3.163,2.177c-1.711,2.671-4.439,4.353-8.243,4.353
		C342.27,372.71,337.769,368.414,337.769,362.581"/>
	<path clip-path="url(#SVGID_2_)" fill="#009AE2" d="M359.744,362.581c0-5.836,4.527-10.131,10.218-10.131
		c5.69,0,10.22,4.295,10.22,10.131c0,5.833-4.529,10.129-10.22,10.129C364.271,372.71,359.744,368.414,359.744,362.581
		 M375.999,362.581c0-3.688-2.438-6.503-6.037-6.503s-6.039,2.814-6.039,6.503c0,3.685,2.44,6.502,6.039,6.502
		S375.999,366.266,375.999,362.581"/>
	<path clip-path="url(#SVGID_2_)" fill="#009AE2" d="M385.522,352.71h6.065c6.066,0,10.392,4.035,10.392,9.871
		c0,5.833-4.299,9.867-10.392,9.867h-6.065V352.71z M391.383,368.879c4.385,0,6.387-2.613,6.387-6.298c0-3.689-2.002-6.3-6.387-6.3
		h-1.8v12.598H391.383z"/>
	<polygon clip-path="url(#SVGID_2_)" fill="#009AE2" points="406.896,352.71 419.96,352.71 419.96,356.281 410.96,356.281 
		410.96,360.557 418.885,360.557 418.885,364.041 410.96,364.041 410.96,368.879 420.365,368.879 420.365,372.448 406.896,372.448 	
		"/>
	<path clip-path="url(#SVGID_2_)" fill="#FFCE43" d="M426.142,370.154c0-1.419,1.133-2.437,2.463-2.437
		c1.31,0,2.444,1.018,2.444,2.437c0,1.454-1.135,2.469-2.444,2.469C427.274,372.623,426.142,371.608,426.142,370.154"/>
	<path clip-path="url(#SVGID_2_)" fill="#009AE2" d="M435.775,352.71h7.64c3.681,0,5.742,2.322,5.742,5.11
		c0,1.827-1.073,3.075-2.784,3.629c2.7,0.636,4.005,2.437,4.005,4.903c0,3.512-2.496,6.096-6.619,6.096h-7.983V352.71z
		 M442.976,359.996c1.305,0,2.177-0.726,2.177-1.857c0-1.134-0.722-1.857-1.975-1.857h-3.339v3.715H442.976z M443.584,368.879
		c1.658,0,2.703-1.102,2.703-2.73c0-1.594-1.078-2.696-2.932-2.696h-3.517v5.427H443.584z"/>
	<path clip-path="url(#SVGID_2_)" fill="#009AE2" d="M453.983,365.308V352.71h4.061v12.367c0,2.874,1.251,3.975,3.947,3.975
		c2.674,0,3.892-1.101,3.892-3.975V352.71h4.062v12.598c0,4.993-3.451,7.402-7.954,7.402
		C457.435,372.71,453.983,370.301,453.983,365.308"/>
	<rect x="475.228" y="352.71" clip-path="url(#SVGID_2_)" fill="#009AE2" width="4.063" height="19.738"/>
	<polygon clip-path="url(#SVGID_2_)" fill="#009AE2" points="485.211,352.71 489.278,352.71 489.278,368.879 498.219,368.879 
		498.219,372.448 485.211,372.448 	"/>
	<path clip-path="url(#SVGID_2_)" fill="#009AE2" d="M502.403,352.71h6.062c6.071,0,10.396,4.035,10.396,9.871
		c0,5.833-4.297,9.867-10.396,9.867h-6.062V352.71z M508.264,368.879c4.385,0,6.387-2.613,6.387-6.298c0-3.689-2.002-6.3-6.387-6.3
		h-1.799v12.598H508.264z"/>
	<rect x="253.365" y="186.965" clip-path="url(#SVGID_2_)" fill="#009AE2" width="3.996" height="19.412"/>
	<path clip-path="url(#SVGID_2_)" fill="#009AE2" d="M263.674,196.671c0-5.738,4.425-9.935,9.99-9.935
		c3.511,0,6.025,1.257,7.765,3.968l-3.055,2.17c-0.913-1.485-2.483-2.541-4.71-2.541c-3.511,0-5.88,2.713-5.88,6.338
		s2.369,6.394,5.88,6.394c2.513,0,3.911-1.199,4.996-2.855l3.113,2.141c-1.684,2.627-4.368,4.282-8.109,4.282
		C268.099,206.633,263.674,202.408,263.674,196.671"/>
	<polygon clip-path="url(#SVGID_2_)" fill="#009AE2" points="292.598,190.476 287.059,190.476 287.059,186.965 302.132,186.965 
		302.132,190.476 296.594,190.476 296.594,206.377 292.598,206.377 	"/>
	<path clip-path="url(#SVGID_2_)" fill="#009AE2" d="M452.455,193.902l5.139-6.937h4.538l-6.508,8.793l7.308,10.619h-4.823
		l-5.169-7.622l-1.883,2.255v5.367h-3.996v-19.412h3.996v6.708c0,0.942-0.143,2.284-0.256,3.255
		C451.257,195.9,451.856,194.702,452.455,193.902"/>
	<path clip-path="url(#SVGID_2_)" fill="#009AE2" d="M468.476,202.552l3.255-1.884c0.856,1.398,1.97,2.426,3.939,2.426
		c1.654,0,2.711-0.828,2.711-1.97c0-1.37-1.084-1.855-2.911-2.655l-0.999-0.427c-2.883-1.228-4.797-2.769-4.797-6.024
		c0-2.997,2.285-5.281,5.854-5.281c2.54,0,4.367,0.885,5.68,3.197l-3.112,1.998c-0.685-1.227-1.425-1.713-2.567-1.713
		c-1.17,0-1.914,0.743-1.914,1.713c0,1.2,0.744,1.684,2.455,2.427l1,0.428c3.398,1.456,5.311,2.94,5.311,6.281
		c0,3.596-2.826,5.566-6.622,5.566C472.045,206.634,469.647,204.864,468.476,202.552"/>
	<polygon clip-path="url(#SVGID_2_)" fill="#FFCE43" points="425.31,164.23 419.524,156.266 447.992,135.584 419.521,114.895 
		425.31,106.93 459.264,131.602 459.264,139.566 	"/>
	<polygon clip-path="url(#SVGID_2_)" fill="#FFCE43" points="323.564,164.23 289.609,139.566 289.607,131.602 323.564,106.93 
		329.351,114.895 300.877,135.584 329.349,156.266 	"/>
	<polygon clip-path="url(#SVGID_2_)" fill="#123651" points="680.563,333.242 582.33,381.312 582.33,333.242 	"/>
	<polygon clip-path="url(#SVGID_2_)" fill="#123651" points="67.438,333.242 165.671,381.312 165.671,333.242 	"/>
	<rect x="67.437" y="253.813" clip-path="url(#SVGID_2_)" fill="#FFFFFF" width="613.125" height="79.94"/>
	<polygon clip-path="url(#SVGID_2_)" fill="#FFCE43" points="337.145,406.082 339.924,411.167 345.008,413.943 339.924,416.725 
		337.145,421.81 334.361,416.725 329.279,413.943 334.361,411.167 	"/>
	<polygon clip-path="url(#SVGID_2_)" fill="#FFCE43" points="410.858,406.082 408.077,411.167 402.992,413.943 408.077,416.725 
		410.858,421.81 413.638,416.725 418.723,413.943 413.638,411.167 	"/>
	<polygon clip-path="url(#SVGID_2_)" fill="#FFFFFF" points="374.002,399.52 378.705,408.122 387.307,412.827 378.705,417.531 
		374.002,426.132 369.296,417.531 360.696,412.827 369.296,408.122 	"/>
	<path clip-path="url(#SVGID_2_)" fill="#FFFFFF" d="M379.117,78.164h-9.362l-47.547,146.334l7.576,5.503l44.652-32.442L419.087,230
		l7.573-5.503L379.117,78.164z M374.437,95.614l23.603,72.644l-61.784,44.873L374.437,95.614z M382.807,191.479l18.426-13.389
		l11.385,35.042L382.807,191.479z"/>
	<path clip-path="url(#SVGID_2_)" fill="#009AE2" d="M133.003,322.271h-13.194l-3.044-10.995h-18.86l-3.045,10.995H81.667
		l17.168-56.324h16.915L133.003,322.271z M100.78,300.704h12.94l-6.426-23.595L100.78,300.704z"/>
	<path clip-path="url(#SVGID_2_)" fill="#009AE2" d="M162.249,322.271h-21.819v-56.324h21.819c13.871,0,19.031,7.018,19.031,14.631
		v27.062C181.279,315.169,176.12,322.271,162.249,322.271 M168.593,284.045c0-4.396-1.522-6.849-7.866-6.849h-7.609v33.826h7.609
		c6.344,0,7.866-2.452,7.866-6.849V284.045z"/>
	<path clip-path="url(#SVGID_2_)" fill="#009AE2" d="M255.44,322.271h-13.193l-3.045-10.995h-18.859l-3.045,10.995h-13.193
		l17.168-56.324h16.917L255.44,322.271z M223.217,300.704h12.94l-6.427-23.595L223.217,300.704z"/>
	<path clip-path="url(#SVGID_2_)" fill="#009AE2" d="M279.359,323.117c-6.512,0-13.361-1.438-18.183-3.637l2.114-9.81
		c5.157,1.605,10.402,2.706,16.238,2.706c6.511,0,7.781-1.271,7.781-6.006c0-5.073-0.254-5.667-9.473-7.695
		c-13.617-2.961-15.646-5.664-15.646-17.845c0-11.25,3.976-15.73,19.454-15.73c4.903,0,10.824,0.506,17.083,1.86l-1.27,10.656
		c-6.428-1.101-10.571-1.606-15.646-1.606c-5.666,0-6.934,1.015-6.934,5.156c0,5.413,0.252,5.501,9.133,7.616
		c15.223,3.634,15.985,6.595,15.985,17.673C299.997,317.619,296.359,323.117,279.359,323.117"/>
	<polygon clip-path="url(#SVGID_2_)" fill="#009AE2" points="333.302,277.196 333.302,322.271 320.615,322.271 320.615,277.196 
		305.475,277.196 305.475,265.947 348.44,265.947 348.44,277.196 	"/>
	<path clip-path="url(#SVGID_2_)" fill="#009AE2" d="M376.165,304.765h-7.442v17.507h-12.686v-56.324h23.426
		c13.702,0,18.776,5.412,18.776,15.981v6.935c0,7.022-2.538,11.758-8.204,14.125l13.616,19.283h-15.054L376.165,304.765z
		 M385.553,283.114c0-4.227-1.607-5.918-6.767-5.918h-10.063v16.575h10.063c5.412,0,6.767-1.946,6.767-6.174V283.114z"/>
	<path clip-path="url(#SVGID_2_)" fill="#009AE2" d="M452.438,319.933h-12.109l-2.795-10.093h-17.312l-2.794,10.093h-12.111
		l15.759-51.7h15.526L452.438,319.933z M422.86,300.136h11.878l-5.9-21.657L422.86,300.136z"/>
	<polygon clip-path="url(#SVGID_2_)" fill="#009AE2" points="508.416,276.593 508.416,321.862 495.678,321.862 495.678,276.593 
		480.476,276.593 480.476,265.297 523.619,265.297 523.619,276.593 	"/>
	<polygon clip-path="url(#SVGID_2_)" fill="#009AE2" points="531.246,321.862 531.246,265.297 566.831,265.297 566.831,276.593 
		543.982,276.593 543.982,286.955 565.046,286.955 565.046,298.251 543.982,298.251 543.982,310.565 566.831,310.565 
		566.831,321.862 	"/>
	<path clip-path="url(#SVGID_2_)" fill="#009AE2" d="M588.726,303.347c0,4.925,1.614,7.813,7.897,7.813
		c4.077,0,9.684-0.51,14.608-1.358l1.784,11.126c-5.605,1.188-10.702,1.783-16.393,1.783c-14.269,0-20.638-7.05-20.638-17.326
		v-23.611c0-10.277,6.369-17.325,20.638-17.325c5.69,0,10.787,0.594,16.393,1.784l-1.784,11.125
		c-4.925-0.849-10.531-1.358-14.608-1.358c-6.283,0-7.897,2.888-7.897,7.813V303.347z"/>
	<polygon clip-path="url(#SVGID_2_)" fill="#009AE2" points="653.593,321.862 653.593,299.099 635.334,299.099 635.334,321.862 
		622.593,321.862 622.593,265.297 635.334,265.297 635.334,287.804 653.593,287.804 653.593,265.297 666.334,265.297 
		666.334,321.862 	"/>
</g>
</svg>
